PathFileType	4	(X/Y/Z)	HSS_squat4.trc
DataRate	CameraRate	NumFrames	NumMarkers	Units	OrigDataRate	OrigDataStartFrame	OrigNumFrames
120.0	120.0	8	44	mm	120.0	609	973
Frame#	Time		R.Shoulder		Offset		L.Shoulder		R.Elbow		R.Wrist.Radial		R.Wrist		R.Hand		L.Elbow		L.Wrist.Radial		L.Wrist		L.Hand		R.Hip		V.Sacral		L.PSIS		L.Hip		R.Thigh.Upper		R.Thigh.Front		R.Thigh.Rear		X.Shell.Lower.Thigh.Right		R.Knee.Lateral		R.Shank.Upper		R.Shank.Front		R.Shank.Rear		X.Shell.Lower.Shank.Right		R.Ankle.Lateral		R.Heel		R.Toe		L.Thigh.Upper		L.Thigh.Front		L.Thigh.Rear		X.Shell.Lower.Thigh.Left		L.Knee.Lateral		L.Shank.Upper		L.Shank.Front		L.Shank.Rear		X.Shell.Lower.Shank.Left		L.Ankle.Lateral		L.Heel		L.Toe		R.Troc		L.Troc		R.PSIS		L.ASIS		R.ASIS
			X1	Y1	Z1	X2	Y2	Z2	X3	Y3	Z3	X4	Y4	Z4	X5	Y5	Z5	X6	Y6	Z6	X7	Y7	Z7	X8	Y8	Z8	X9	Y9	Z9	X10	Y10	Z10	X11	Y11	Z11	X12	Y12	Z12	X13	Y13	Z13	X14	Y14	Z14	X15	Y15	Z15	X16	Y16	Z16	X17	Y17	Z17	X18	Y18	Z18	X19	Y19	Z19	X20	Y20	Z20	X21	Y21	Z21	X22	Y22	Z22	X23	Y23	Z23	X24	Y24	Z24	X25	Y25	Z25	X26	Y26	Z26	X27	Y27	Z27	X28	Y28	Z28	X29	Y29	Z29	X30	Y30	Z30	X31	Y31	Z31	X32	Y32	Z32	X33	Y33	Z33	X34	Y34	Z34	X35	Y35	Z35	X36	Y36	Z36	X37	Y37	Z37	X38	Y38	Z38	X39	Y39	Z39	X40	Y40	Z40	X41	Y41	Z41	X42	Y42	Z42	X43	Y43	Z43	X44	Y44	Z44

609	5.06667	127.47515	956.17603	-245.90961	-154.96066	907.83105	-112.33451	-183.41859	967.56793	-258.00134	284.97028	797.29407	-506.84250	76.93073	864.91400	-666.41785	126.59672	898.99579	-708.10413	45.44716	905.57050	-743.40326	-334.20596	834.42743	-537.51587	-108.30769	866.36554	-678.62866	-151.77142	912.36139	-714.31537	-67.17780	901.80945	-742.93567	108.21556	601.05658	-1.21798	-40.05047	621.30438	134.53612	-76.64109	629.41718	125.62354	-190.59712	598.89685	7.48166	192.24098	530.36810	-128.09818	181.78873	555.73328	-173.13184	214.76509	505.14587	-158.73897	202.60988	524.96851	-199.15332	214.55544	436.12878	-289.09195	257.66882	320.10031	-256.10812	234.25462	268.54691	-261.10013	242.91899	303.19574	-211.17249	233.53667	256.70593	-213.42587	184.86176	71.79537	-93.72844	133.63918	35.48325	-45.14754	203.19385	33.33777	-236.31145	-242.77705	529.37292	-139.37901	-226.96661	541.29645	-193.75339	-264.93982	497.01028	-168.45303	-256.82037	517.48328	-207.50049	-246.65155	425.37006	-306.35153	-286.53604	274.57861	-223.02269	-268.97577	240.63918	-235.24019	-274.20221	255.55928	-176.23019	-275.57602	217.36813	-182.10152	-233.77013	73.17060	-109.12795	-186.55713	39.56073	-45.82517	-241.55965	31.61017	-242.49930	141.85265	568.07141	33.12335	-229.42902	556.41937	42.67918	0.45991	629.28046	126.83057	-149.07202	560.44006	-33.33710	79.91908	568.16632	-36.65369
610	5.07500	127.35577	952.24915	-245.83434	-155.05931	904.27167	-112.14755	-183.50793	963.89142	-257.78525	284.57419	793.35101	-507.02899	76.62617	860.74805	-666.64948	126.39482	895.01556	-708.07727	45.25001	901.69482	-743.57684	-334.30444	830.63440	-537.31293	-109.50427	862.43750	-678.83282	-152.04120	908.59100	-714.29767	-67.50320	898.00122	-743.08356	108.11396	598.06598	-0.63967	-40.07420	617.60345	135.26035	-76.64159	625.83618	126.45037	-190.70117	595.62921	8.51942	192.01402	528.86151	-127.65317	181.47818	554.58374	-172.49857	214.56155	503.94409	-158.55627	202.47517	524.06000	-198.75137	214.65715	435.90866	-289.17108	257.62625	320.01505	-256.25513	233.86287	268.70135	-261.43704	242.86467	303.08627	-211.33713	233.49138	256.62476	-213.57161	184.80045	71.80462	-93.75603	133.59261	35.49203	-45.12324	203.17337	33.34261	-236.30060	-242.85513	527.48682	-138.46378	-227.36440	539.58698	-192.74789	-265.25311	495.36395	-167.69835	-257.12320	516.31531	-206.65025	-247.04504	425.08325	-306.26880	-286.64752	274.50751	-222.94156	-269.09213	240.58414	-235.18150	-274.29996	255.46051	-176.13312	-275.64529	217.30473	-182.04077	-233.70062	73.14021	-109.08272	-186.44476	39.49829	-45.82072	-241.58022	31.63824	-242.46869	141.60431	565.30841	33.56640	-229.53654	553.00684	43.60020	0.42075	625.63062	127.42179	-149.32710	557.27496	-32.59237	80.02856	565.59406	-36.13186
611	5.08333	127.18922	948.46539	-245.74480	-155.12151	900.71246	-112.13432	-183.55505	960.19122	-257.53278	284.03287	789.30334	-507.02747	76.29889	856.82532	-666.81195	126.07788	891.05969	-708.19495	44.89455	897.98254	-743.84717	-334.44202	826.93994	-537.00116	-109.95869	858.74756	-678.69354	-152.37375	904.87946	-714.16125	-67.83766	894.17926	-743.04779	107.98616	595.15063	-0.20090	-40.06699	613.85828	136.10127	-76.73510	622.09534	127.36354	-190.77411	592.47675	9.41964	191.72679	527.46332	-127.10350	181.45573	553.51337	-171.75932	214.47726	502.85846	-158.30695	202.10786	523.09161	-198.37323	214.61418	435.67657	-289.32297	257.55283	319.92484	-256.45230	233.79851	268.61353	-261.57642	242.77815	302.98926	-211.49940	233.42998	256.53604	-213.72847	184.72266	71.79516	-93.77464	133.52820	35.50047	-45.15051	203.15941	33.35489	-236.34125	-243.15837	525.77887	-137.57303	-227.62991	538.01398	-191.60333	-265.53333	493.89880	-167.00771	-257.50327	515.08405	-205.72589	-246.65463	425.10336	-306.44580	-286.74197	274.43228	-222.88004	-269.20288	240.53200	-235.12602	-274.42523	255.37215	-176.04477	-275.71527	217.22226	-181.99960	-233.65848	73.11629	-109.07037	-186.27919	39.46119	-45.86938	-241.57800	31.62395	-242.45920	141.45752	562.41852	33.99178	-229.50230	549.63037	44.60583	0.37722	622.07941	128.22766	-149.49799	554.29169	-31.98668	79.79457	562.74188	-35.64600
612	5.09167	127.00580	944.62201	-245.76971	-155.28127	897.20197	-111.43114	-183.62988	956.61292	-257.32266	283.61163	785.47949	-506.98627	76.06917	852.98340	-666.80261	125.91285	887.19391	-708.46143	44.73390	894.00775	-743.95233	-334.54703	823.32568	-536.54419	-109.63882	855.01862	-678.53125	-152.64479	901.04285	-714.10614	-68.20113	890.36200	-743.08044	107.95377	592.26904	0.40089	-40.16922	610.15131	136.89598	-76.76350	618.48480	128.46762	-190.72667	589.41199	10.47785	191.47289	526.17731	-126.89458	180.85555	552.33087	-171.31052	214.27605	501.79697	-158.21834	201.72850	522.20709	-197.94293	214.62086	435.44498	-289.47696	257.47021	319.80765	-256.67252	233.74541	268.54504	-261.74973	242.69258	302.76633	-211.62790	233.34227	256.44635	-213.92224	184.66032	71.81844	-93.83446	133.44984	35.52745	-45.15036	203.12727	33.35359	-236.33527	-243.32516	524.07184	-136.65341	-228.37866	537.23920	-190.60112	-265.81021	492.34103	-166.46291	-257.75208	513.90424	-205.05583	-247.14381	424.90079	-306.33054	-286.85571	274.33911	-222.79091	-269.34888	240.49309	-235.08354	-274.58026	255.30280	-175.94592	-275.82504	217.14919	-181.95859	-233.69232	73.06754	-108.99416	-186.25211	39.33523	-45.94901	-241.59796	31.66246	-242.46950	141.39059	559.65405	34.44978	-229.60918	546.31622	45.51901	0.30258	618.55518	129.14499	-149.54047	551.36243	-31.18267	79.67049	559.90057	-34.97094
613	5.10000	126.88771	940.92639	-245.74045	-155.37123	893.77667	-111.19176	-183.71794	952.97821	-257.04340	283.08597	781.48273	-506.95239	75.81647	849.20953	-666.99615	125.53502	883.45337	-708.63971	44.41685	890.22900	-743.98859	-334.65768	819.68091	-536.26807	-110.54246	850.95502	-678.80371	-152.89902	897.29657	-713.92920	-68.42398	886.56366	-742.85992	107.83169	589.36163	0.90441	-40.10203	606.42688	138.04623	-76.78233	614.82593	129.43350	-190.70569	586.38568	11.54359	191.22006	524.79010	-126.65199	180.28677	551.08447	-170.88206	214.12886	500.66818	-157.77498	201.45421	521.38922	-197.70856	214.61066	435.21616	-289.60944	257.35110	319.65347	-256.97324	233.64894	268.41937	-261.98181	242.55984	302.33435	-211.75954	233.26360	256.32391	-214.11098	184.57687	71.82164	-93.84590	133.40410	35.52886	-45.19568	203.09261	33.37297	-236.32568	-243.52242	522.35498	-135.75241	-228.45059	535.94202	-189.87610	-266.03342	490.95697	-165.78268	-258.05713	512.83252	-204.28581	-247.71660	424.72766	-306.19159	-287.01904	274.25485	-222.73993	-269.53888	240.42706	-235.05098	-274.73621	255.26320	-175.83086	-275.95477	217.08453	-181.96530	-233.55779	73.09217	-109.06705	-186.00513	39.46756	-45.94701	-241.60988	31.69501	-242.43982	141.22412	556.79553	34.97723	-229.56778	543.03070	46.48437	0.33551	614.98236	130.04608	-149.69052	548.53229	-30.52122	79.44698	557.04254	-34.41992
614	5.10833	126.72198	937.25183	-245.61086	-155.48482	890.25305	-110.78442	-183.79712	949.35681	-256.88306	282.53323	777.56152	-506.90585	75.38525	845.34747	-667.07257	125.32439	879.52551	-708.76166	44.10169	886.53436	-744.07245	-334.87531	816.09833	-536.00592	-110.60970	847.58240	-678.59430	-153.19504	893.53229	-713.92975	-68.81177	882.90613	-742.93774	107.75272	586.46686	1.63145	-40.09102	602.63361	138.99805	-76.76622	611.06549	130.69092	-190.54611	583.49585	12.47612	191.00287	523.46948	-126.19629	179.88058	549.79010	-170.33691	214.03560	499.56284	-157.80553	201.23402	520.47638	-197.47925	214.60933	435.03287	-289.81088	257.28278	319.53937	-257.23062	233.51376	268.30106	-262.24612	242.11545	302.54120	-212.64346	233.22255	256.23468	-214.30400	184.51294	71.83211	-93.89414	133.34799	35.54890	-45.21584	203.08018	33.36170	-236.34981	-243.74670	520.69751	-135.08499	-228.80978	534.74847	-189.02061	-266.28528	489.55444	-165.29419	-258.39526	511.71652	-203.47932	-248.13589	424.57025	-306.13498	-287.21890	274.15588	-222.71793	-269.75565	240.35831	-235.04198	-274.83972	255.22923	-175.74414	-276.08762	217.01364	-181.96436	-233.52081	73.08096	-109.07967	-185.86874	39.49781	-45.99503	-241.63953	31.70256	-242.46127	141.25346	554.05621	35.56337	-229.52589	539.98767	47.35078	0.46922	611.38672	130.97353	-149.55995	545.75275	-29.73708	79.44592	554.07324	-33.74931
615	5.11667	126.53471	933.48999	-245.55240	-155.59114	886.83905	-110.56586	-184.00478	945.72925	-256.74527	282.11630	773.66412	-506.83072	75.26330	841.66284	-666.87524	124.99143	875.71088	-708.70624	43.84616	882.73193	-744.13794	-334.98520	812.49548	-535.52417	-110.94218	843.94897	-678.22943	-153.58156	889.92700	-713.77930	-69.17066	879.30811	-742.89990	107.68973	583.72119	2.50688	-39.97289	598.83777	140.11421	-76.74318	607.35815	131.85208	-190.40800	580.54553	13.53722	190.68498	522.16150	-125.83897	179.56395	548.41211	-169.74875	214.02065	498.41931	-157.62875	201.22029	519.45184	-197.05057	214.65469	434.84821	-290.01794	257.24084	319.43781	-257.48550	233.43918	268.22400	-262.42880	242.07950	302.48071	-212.87497	233.16164	256.17264	-214.48686	184.42455	71.84016	-93.93684	133.27538	35.56273	-45.28227	203.07469	33.37508	-236.38054	-243.96878	519.10809	-134.43324	-229.12021	533.56458	-188.08789	-266.53738	488.25186	-164.80412	-258.66852	510.67288	-202.92397	-248.59978	424.43130	-306.12915	-287.41852	274.09033	-222.74963	-269.92624	240.26801	-235.04100	-274.93933	255.21040	-175.68074	-276.17407	216.95619	-181.99277	-233.50346	73.06264	-109.11697	-185.74318	39.52157	-46.06919	-241.67302	31.73883	-242.50876	141.27153	551.05884	36.02713	-229.39311	536.88361	48.07132	0.50161	607.75757	132.12822	-149.51134	543.01855	-28.99844	79.28188	551.59918	-33.05869
616	5.12500	126.39122	929.93311	-245.54303	-155.77931	883.49152	-110.41526	-184.19409	942.17218	-256.48804	281.71744	769.64026	-506.77740	75.03136	837.69397	-666.88177	124.73455	871.96930	-708.62244	43.47632	879.03949	-744.02802	-335.28476	808.94165	-535.38843	-111.40824	840.17889	-678.27240	-153.85242	886.33179	-713.58118	-69.52955	875.61450	-742.73010	107.69724	580.91864	3.44930	-39.94580	594.97937	141.31412	-76.45084	603.59497	132.87479	-190.10500	577.76843	14.59025	190.37434	520.81805	-125.42224	179.39627	547.18213	-169.07516	213.97577	497.11801	-157.37596	201.09842	518.69891	-196.63954	214.67876	434.71323	-290.14767	257.20706	319.34470	-257.62955	233.37936	268.15103	-262.57556	242.02850	302.42456	-213.03647	233.12479	256.13834	-214.67111	184.37259	71.85787	-93.96635	133.21109	35.58141	-45.32855	203.04842	33.38540	-236.41580	-244.12958	517.57892	-133.69127	-229.39742	532.34125	-187.36732	-266.82730	487.01205	-164.24124	-258.91742	509.67706	-202.24582	-249.23125	424.40421	-306.18390	-287.59268	274.01062	-222.80627	-270.08511	240.18314	-235.05011	-275.10880	255.14050	-175.66998	-276.26779	216.91898	-182.00154	-233.47525	73.04829	-109.14059	-185.62315	39.51073	-46.15644	-241.71616	31.77247	-242.55376	141.30582	547.99512	36.90706	-229.40596	533.86798	48.97779	0.62589	604.01239	133.45006	-149.46091	540.31158	-28.30297	79.15932	549.03833	-32.22498
